<svg width="123" height="29" viewBox="0 0 123 29" fill="none" xmlns="http://www.w3.org/2000/svg">
<path d="M50.9059 0H60.7102C64.5205 0 68.1748 1.51315 70.8691 4.20656C73.5634 6.89998 75.077 10.553 75.077 14.3621V24.1632C75.0774 24.6671 74.9786 25.1661 74.7861 25.6317C74.5936 26.0974 74.3112 26.5206 73.9551 26.8772C73.5991 27.2338 73.1762 27.5167 72.7107 27.7099C72.2452 27.9031 71.7462 28.0028 71.2422 28.0032H61.4991C59.6041 28.0045 57.7275 27.6324 55.9765 26.9083C54.2254 26.1841 52.6343 25.1221 51.2941 23.7829C49.9539 22.4437 48.8908 20.8536 48.1656 19.1035C47.4405 17.3533 47.0674 15.4775 47.0679 13.5832V3.83676C47.0679 2.81919 47.4722 1.84329 48.192 1.12376C48.9118 0.404229 49.888 0 50.9059 0V0Z" fill="#0A7542"/>
<path d="M61.1513 9.79142C61.9836 9.79142 62.7972 10.0382 63.4893 10.5004C64.1813 10.9627 64.7207 11.6197 65.0392 12.3884C65.3578 13.1571 65.4411 14.003 65.2787 14.8191C65.1163 15.6351 64.7155 16.3847 64.127 16.9731C63.5385 17.5614 62.7886 17.9621 61.9723 18.1244C61.156 18.2868 60.3098 18.2034 59.5408 17.885C58.7719 17.5666 58.1146 17.0274 57.6522 16.3356C57.1898 15.6438 56.943 14.8304 56.943 13.9983C56.9447 12.8831 57.3886 11.8141 58.1775 11.0255C58.9663 10.2369 60.0357 9.79312 61.1513 9.79142ZM61.1513 5.28516C59.4276 5.28579 57.7427 5.79735 56.3098 6.75516C54.8769 7.71296 53.7602 9.074 53.101 10.6662C52.4418 12.2584 52.2697 14.0102 52.6063 15.7002C52.943 17.3902 53.7734 18.9424 54.9925 20.1606C56.2116 21.3789 57.7646 22.2084 59.4553 22.5443C61.1459 22.8803 62.8983 22.7075 64.4907 22.048C66.0832 21.3884 67.4443 20.2716 68.4018 18.8388C69.3594 17.406 69.8705 15.7215 69.8705 13.9983C69.8705 11.6875 68.9522 9.47123 67.3177 7.83719C65.6831 6.20315 63.4661 5.28516 61.1545 5.28516H61.1513Z" fill="#F1F2F2"/>
<path d="M56.9494 5.28516H55.3395C54.9384 5.28516 54.5412 5.36419 54.1707 5.51774C53.8001 5.67128 53.4635 5.89634 53.18 6.18002C52.8965 6.46371 52.6717 6.80047 52.5185 7.17106C52.3653 7.54164 52.2867 7.93878 52.2871 8.33976V24.6524C53.6673 25.8046 55.2507 26.6889 56.9558 27.2596V5.28516H56.9494Z" fill="#F1F2F2"/>
<path d="M61.1964 5.28845H55.7549V8.18856H61.1964V5.28845Z" fill="#F1F2F2"/>
<path d="M5.95076 5.89038H6.40153C7.99641 5.89038 9.45606 6.54808 10.7805 7.86348C11.7994 8.94202 12.3743 10.3649 12.3904 11.8483V11.9481C12.3904 13.9802 11.4652 15.6486 9.6149 16.9533C8.60659 17.6044 7.43128 17.9498 6.23088 17.9479H6.11819C5.13131 17.9355 4.16019 17.6988 3.27831 17.2558V23.9315C3.27941 23.9385 3.27884 23.9457 3.27664 23.9525C3.27444 23.9592 3.27068 23.9654 3.26565 23.9704C3.26063 23.9754 3.25449 23.9792 3.24774 23.9814C3.24099 23.9836 3.23381 23.9841 3.2268 23.983H0.0520613C0.045045 23.9841 0.0378679 23.9836 0.0311151 23.9814C0.0243623 23.9792 0.0182248 23.9754 0.0132029 23.9704C0.00818092 23.9654 0.00441666 23.9592 0.00221685 23.9525C1.70519e-05 23.9457 -0.000556033 23.9385 0.000544308 23.9315V11.7002C0.000544308 10.1982 0.662752 8.78619 1.98717 7.46436C3.27724 6.41504 4.59843 5.89038 5.95076 5.89038ZM6.14394 9.10914H6.02803C5.07497 9.10914 4.27109 9.60376 3.61639 10.593C3.40902 11.0077 3.29369 11.4622 3.27831 11.9256C3.27831 13.0242 3.83856 13.8751 4.95905 14.478C5.32498 14.6376 5.71899 14.723 6.11819 14.7291H6.24698C7.32025 14.7291 8.15955 14.2173 8.76487 13.1937C8.97073 12.8197 9.08131 12.4007 9.08685 11.9738V11.8483C9.08685 10.8247 8.56202 10.004 7.51236 9.38595C7.15216 9.21613 6.76095 9.12192 6.36289 9.10914H6.2341C6.23059 9.10969 6.227 9.10941 6.22363 9.10831C6.22025 9.10721 6.21718 9.10532 6.21467 9.10281C6.21216 9.1003 6.21028 9.09724 6.20918 9.09386C6.20808 9.09049 6.20779 9.0869 6.20834 9.08339L6.14394 9.10914Z" fill="white"/>
<path d="M36.5068 5.89038H36.9575C38.5481 5.89038 40.0067 6.54808 41.3333 7.86348C42.3522 8.94202 42.9271 10.3649 42.9432 11.8483V11.9481C42.9432 13.9802 42.018 15.6486 40.1677 16.9533C39.1604 17.604 37.9862 17.9494 36.7869 17.9479H36.6839C35.6969 17.9361 34.7256 17.6994 33.844 17.2558V23.9315C33.8445 23.9384 33.8435 23.9453 33.841 23.9518C33.8386 23.9583 33.8348 23.9641 33.83 23.969C33.8251 23.9739 33.8192 23.9777 33.8127 23.9801C33.8063 23.9825 33.7994 23.9835 33.7925 23.983H30.6049C30.598 23.9835 30.5911 23.9825 30.5846 23.9801C30.5781 23.9777 30.5723 23.9739 30.5674 23.969C30.5625 23.9641 30.5587 23.9583 30.5563 23.9518C30.5539 23.9453 30.5529 23.9384 30.5533 23.9315V11.7002C30.5533 10.1982 31.2166 8.78619 32.5432 7.46436C33.8354 6.41504 35.1566 5.89038 36.5068 5.89038ZM36.7 9.10914H36.584C35.6288 9.10914 34.8239 9.60376 34.1692 10.593C33.9667 11.0087 33.8569 11.4633 33.8472 11.9256C33.8472 13.0242 34.4064 13.8751 35.5247 14.478C35.8918 14.6377 36.2868 14.723 36.6871 14.7291H36.8159C37.8891 14.7291 38.7284 14.2173 39.3338 13.1937C39.5396 12.8197 39.6502 12.4007 39.6557 11.9738V11.8483C39.6557 10.8247 39.1309 10.004 38.0813 9.38595C37.7208 9.21681 37.3297 9.12264 36.9318 9.10914H36.803C36.7837 9.10914 36.7772 9.10914 36.7772 9.08339L36.7 9.10914Z" fill="white"/>
<path d="M20.678 5.84521H21.0805C22.4758 5.84521 23.7744 6.41494 24.9765 7.55438C25.9682 8.69382 26.463 9.84613 26.4608 11.0113V11.478C26.4608 12.3364 26.0916 13.2451 25.3532 14.2043L20.7038 20.9444H26.1775C26.2129 20.9444 26.229 20.9702 26.229 20.9959V23.7866C26.229 23.8188 26.229 23.8349 26.1775 23.8349H15.1528V23.7866C18.8213 18.4628 20.7532 15.6732 20.9485 15.4178C22.5004 13.4629 23.2753 12.4319 23.2732 12.3246C23.4315 12.0041 23.5152 11.652 23.5179 11.2946C23.5179 10.3289 23.0381 9.55001 22.0722 9.00604C21.7563 8.84503 21.4091 8.75495 21.0547 8.7421H20.9227H20.8712H20.7553C19.989 8.7421 19.3182 9.11548 18.7429 9.86223C18.444 10.2795 18.286 10.7813 18.2921 11.2946C18.2982 11.7132 18.4089 12.1238 18.6141 12.4887L18.5626 12.5145H15.4555C15.3589 12.4887 15.2945 12.0639 15.2623 11.2431C15.2623 9.67447 15.9063 8.31293 17.1942 7.15847C18.1663 6.3272 19.3989 5.86256 20.678 5.84521Z" fill="white"/>
<path d="M79.797 5.77124H82.9718C83.0072 5.77124 83.0233 5.79699 83.0233 5.82274V12.4856H83.049C83.9465 12.0286 84.9397 11.7914 85.9469 11.7935C88.0033 11.7935 89.7205 12.6905 91.0986 14.4844C91.7595 15.466 92.1178 16.6198 92.1289 17.803V17.9028C92.1289 19.8662 91.2166 21.5174 89.3921 22.8564C88.4389 23.4697 87.3374 23.8134 86.2045 23.851H85.6764C84.2629 23.851 82.9106 23.291 81.6098 22.1676C80.3712 20.8801 79.752 19.5089 79.752 18.054V5.82274C79.752 5.79377 79.7713 5.77124 79.797 5.77124ZM83.049 17.6807V17.8191C83.0496 17.8226 83.0493 17.8262 83.0482 17.8295C83.0471 17.8329 83.0452 17.836 83.0427 17.8385C83.0402 17.841 83.0371 17.8429 83.0338 17.844C83.0304 17.8451 83.0268 17.8454 83.0233 17.8448L83.049 17.8963V17.9703C83.049 18.9778 83.5996 19.7922 84.7008 20.423C85.0924 20.5762 85.5073 20.6611 85.9276 20.6741C87.121 20.6741 88.0247 20.0786 88.6386 18.8877C88.7492 18.5773 88.8101 18.2514 88.819 17.9221V17.7965C88.819 16.7816 88.3113 15.9726 87.296 15.3696C86.8814 15.1545 86.4204 15.044 85.9533 15.0477C84.6268 15.0477 83.693 15.714 83.1521 17.0466C83.0927 17.2476 83.0581 17.4551 83.049 17.6646V17.6807Z" fill="white"/>
<path d="M110.672 5.77124H113.847C113.882 5.77124 113.898 5.79699 113.898 5.82274V12.4856H113.924C114.821 12.029 115.815 11.7918 116.822 11.7935C118.88 11.7935 120.597 12.6905 121.973 14.4844C122.633 15.4661 122.989 16.6203 122.997 17.803V17.9028C122.997 19.8662 122.085 21.5174 120.26 22.8564C119.307 23.4689 118.206 23.8126 117.073 23.851H116.558C115.147 23.851 113.792 23.2899 112.491 22.1676C111.252 20.8801 110.633 19.5089 110.633 18.054V5.82274C110.63 5.79377 110.646 5.77124 110.672 5.77124ZM113.924 17.6807V17.8191C113.924 17.8191 113.924 17.8448 113.898 17.8448L113.924 17.8963V17.9703C113.924 18.9778 114.474 19.7922 115.579 20.423C115.969 20.5759 116.383 20.6608 116.802 20.6741C118 20.6741 118.904 20.0786 119.513 18.8877C119.626 18.5777 119.686 18.2516 119.694 17.9221V17.7965C119.694 16.7816 119.186 15.9726 118.171 15.3696C117.756 15.1538 117.295 15.0432 116.828 15.0477C115.506 15.0477 114.572 15.714 114.027 17.0466C113.968 17.2476 113.933 17.4551 113.924 17.6646V17.6807Z" fill="white"/>
<path d="M100.423 5.84521H100.822C102.218 5.84521 103.517 6.41494 104.722 7.55438C105.711 8.69382 106.206 9.84613 106.206 11.0113V11.478C106.206 12.3364 105.836 13.2451 105.095 14.2043L100.459 20.9444H105.932C105.968 20.9444 105.984 20.9702 105.984 20.9959V23.7866C105.984 23.8188 105.968 23.8349 105.932 23.8349H94.8979V23.7866C98.5642 18.4628 100.496 15.6732 100.694 15.4178C102.241 13.4629 103.016 12.4319 103.018 12.3246C103.177 12.0041 103.26 11.652 103.263 11.2946C103.263 10.3139 102.781 9.55108 101.817 9.00604C101.5 8.84497 101.152 8.7549 100.797 8.7421H100.668H100.616H100.5C99.7341 8.7421 99.0633 9.11548 98.488 9.86223C98.1881 10.2792 98.0291 10.781 98.034 11.2946C98.0387 11.7134 98.1495 12.1243 98.356 12.4887L98.3045 12.5145H95.2425C95.1491 12.4887 95.0847 12.0639 95.0493 11.2431C95.0493 9.67447 95.6997 8.31293 97.0005 7.15847C97.9565 6.34044 99.1652 5.87666 100.423 5.84521Z" fill="white"/>
</svg>
