<svg xmlns="http://www.w3.org/2000/svg" fill="none" width="64" height="23" viewBox="0 0 64000 23000"><path d="M40146 22184h5860l5314-6937 2886 4473h5860l-5720-8422L63002 0H57140l-5550 7244-3245-4779H43070l5570 8630-8495 11089zM0 7396h3516v9856h2930V7396h3517V4930H0v2465zM15240 4930h-2930v12325h2930V4930zm20510-2h-2931v12324h8204V14790H35750v-2464h5274V9860H35750V7395h5274V4930H35750zm-11717 6164 4688-6162h1172v12325h-2930v-5370l-2930 3520-2930-3080v4930h-2930V4930h1172l4688 6162" fill="#010005" fill-rule="evenodd" clip-rule="evenodd"/></svg>
